<?xml version="1.0" standalone="no"?><!DOCTYPE svg PUBLIC "-//W3C//DTD SVG 1.1//EN" "http://www.w3.org/Graphics/SVG/1.1/DTD/svg11.dtd"><svg class="icon" height="512" viewBox="0 0 1024 1024" version="1.1" xmlns="http://www.w3.org/2000/svg"><path d="M937.92256 445.152L564.67456 85.28a77.44 77.44 0 0 0-106.656 0 70.88 70.88 0 0 0 0 102.816l319.936 308.448-319.936 308.448a70.88 70.88 0 0 0 0 102.816 77.44 77.44 0 0 0 106.656 0L937.92256 547.968c29.44-28.384 29.44-74.4 0-102.816z m-435.968 0L128.73856 85.28a77.44 77.44 0 0 0-106.656 0 70.88 70.88 0 0 0 0 102.816l319.936 308.448-319.936 308.48a70.88 70.88 0 0 0 0 102.816 77.44 77.44 0 0 0 106.656 0l373.248-359.872c29.44-28.384 29.44-74.4-0.032-102.816z" /></svg>